<svg width="120" height="100" viewBox="0 0 120 100" fill="none" xmlns="http://www.w3.org/2000/svg">
<g id="triangles" clip-path="url(#clip0_0_3)">
<g id="lightGroup">
<path id="light1" d="M48.1736 48.2985C49.5132 49.0545 49.5337 50.9766 48.2104 51.7609L13.9926 72.0405C12.6676 72.8259 10.9894 71.8815 10.9731 70.3413L10.5498 30.5136C10.5335 28.9734 12.1912 27.9936 13.5326 28.7506L48.1736 48.2985Z" fill="#5BBAFF" fill-opacity="0.8"/>
</g>
<g id="darkGroup">
<path id="dark2" d="M48.1736 48.2985C49.5132 49.0545 49.5336 50.9766 48.2104 51.7609L13.9926 72.0405C12.6675 72.8259 10.9894 71.8815 10.973 70.3413L10.5498 30.5136C10.5334 28.9734 12.1911 27.9936 13.5326 28.7506L48.1736 48.2985Z" fill="#7C6AE8" fill-opacity="0.8"/>
<path id="dark1" d="M58.1736 48.2985C59.5132 49.0545 59.5336 50.9766 58.2104 51.7609L23.9926 72.0405C22.6675 72.8259 20.9894 71.8815 20.973 70.3413L20.5498 30.5136C20.5334 28.9734 22.1911 27.9936 23.5326 28.7506L58.1736 48.2985Z" fill="#7C6AE8" fill-opacity="0.8"/>
</g>
</g>
<defs>
<clipPath id="clip0_0_3">
<rect width="120" height="100" fill="white"/>
</clipPath>
</defs>
</svg>
